# xmcd CD database file
#
# Track frame offsets:
#	150
#	12522
#	41062
#	52965
#	67750
#	82567
#	107105
#	121010
#	147480
#	155647
#	170590
#	190120
#	209067
#	249177
#
# Disc length: 3629 seconds
#
# Revision: 0
# Processed by: cddbd v1.4PL0 Copyright (c) Steve Scherf et al.
# Submitted via: CDex 1.50
#
DISCID=b70e2b0e
DTITLE=Chis Barber - Petite Fleur
DYEAR=1993
DGENRE=Jazz
TTITLE0=Petite Fleur
TTITLE1=When The Saints Go Marchin In
TTITLE2=Bourbon Street Parade
TTITLE3=Sweet Georgia Brown
TTITLE4=Everybody Loves My Baby
TTITLE5=Majorca
TTITLE6=High Society
TTITLE7=April Showers
TTITLE8=Brown Skin Mama
TTITLE9=Here Comes My Blackbird
TTITLE10=Sweet Sue, Just You
TTITLE11=Jailhouse Blues
TTITLE12=Sheikh Of Araby
TTITLE13=New St. Louis Blues
EXTD=YEAR: 1993
EXTT0=
EXTT1=
EXTT2=
EXTT3=
EXTT4=
EXTT5=
EXTT6=
EXTT7=
EXTT8=
EXTT9=
EXTT10=
EXTT11=
EXTT12=
EXTT13=
PLAYORDER=
